<svg width="69" height="60" fill="none" xmlns="http://www.w3.org/2000/svg">
  <path fill-rule="evenodd" clip-rule="evenodd" d="M6.499 3.34C6.499 1.755 7.835.6 9.316.6h51.032c1.482 0 2.817 1.154 2.817 2.74v53.578h4.27a1.4 1.4 0 110 2.8H7.95a1.404 1.404 0 01-.1 0H2.23a1.4 1.4 0 110-2.8H6.5V3.341zm2.8 53.578h5.705v-5.305c0-1.586 1.336-2.74 2.818-2.74h8.505c1.482 0 2.817 1.154 2.817 2.74v5.305h14.21v-13.29h-15.61c-2.264 0-4.235-1.755-4.235-4.082V19.491H9.3v37.427zm0-40.227h32.62c2.266 0 4.236 1.755 4.236 4.081v36.146h14.21V3.401a.105.105 0 00-.017-.001H9.3v13.29zm17.01 2.8v20.055c0 .636.568 1.282 1.435 1.282h15.61V20.772c0-.635-.567-1.281-1.434-1.281H26.31zm.035 37.427v-5.245a.11.11 0 00-.017 0h-8.523v5.245h8.54zM49.025 18.09a1.4 1.4 0 011.4-1.4h5.67a1.4 1.4 0 010 2.8h-5.67a1.4 1.4 0 01-1.4-1.4zm0 5.363a1.4 1.4 0 011.4-1.4h5.67a1.4 1.4 0 010 2.8h-5.67a1.4 1.4 0 01-1.4-1.4zM12.17 26.136a1.4 1.4 0 011.4-1.4h5.67a1.4 1.4 0 110 2.8h-5.67a1.4 1.4 0 01-1.4-1.4zm36.856 2.682a1.4 1.4 0 011.4-1.4h5.67a1.4 1.4 0 010 2.8h-5.67a1.4 1.4 0 01-1.4-1.4zM12.17 31.5a1.4 1.4 0 011.4-1.4h5.67a1.4 1.4 0 110 2.8h-5.67a1.4 1.4 0 01-1.4-1.4zm36.856 2.681a1.4 1.4 0 011.4-1.4h5.67a1.4 1.4 0 010 2.8h-5.67a1.4 1.4 0 01-1.4-1.4zM12.17 36.864a1.4 1.4 0 011.4-1.4h5.67a1.4 1.4 0 110 2.8h-5.67a1.4 1.4 0 01-1.4-1.4zm36.856 2.681a1.4 1.4 0 011.4-1.4h5.67a1.4 1.4 0 010 2.8h-5.67a1.4 1.4 0 01-1.4-1.4zM12.17 42.227a1.4 1.4 0 011.4-1.4h5.67a1.4 1.4 0 010 2.8h-5.67a1.4 1.4 0 01-1.4-1.4zm36.856 2.682a1.4 1.4 0 011.4-1.4h5.67a1.4 1.4 0 010 2.8h-5.67a1.4 1.4 0 01-1.4-1.4zm0 5.363a1.4 1.4 0 011.4-1.4h5.67a1.4 1.4 0 010 2.8h-5.67a1.4 1.4 0 01-1.4-1.4z" fill="#999"/>
</svg>
