<svg width="63" height="59" fill="none" xmlns="http://www.w3.org/2000/svg">
  <path d="M61.675 1.967c.574 0 1.04-.44 1.04-.983 0-.544-.466-.984-1.04-.984H34.808c-1.03 0-2.024.361-2.787 1.015l-29.964 25.6c-1.09.933-1.713 2.258-1.714 3.65v3.168c0 .544.465.984 1.04.984.573 0 1.039-.44 1.039-.984v-3.169a2.888 2.888 0 011.028-2.19l4.17-3.562V47.2H1.383c-.575 0-1.04.44-1.04.983 0 .544.465.984 1.04.984h1.039v7.866C2.423 58.12 3.353 59 4.5 59h56.134c1.148-.001 2.078-.88 2.08-1.967V19.667c-.002-1.086-.932-1.966-2.08-1.967h-6.237V1.967h7.276zm-26.867 0h7.116V17.7h-6.237c-.574 0-1.04.44-1.04.983 0 .544.466.984 1.04.984h1.04v6.883c-.001.543-.467.983-1.04.983h-3.119V3.197l.847-.724a2.14 2.14 0 011.393-.506zM24.252 27.533c-.574 0-1.04.44-1.04.983 0 .544.466.984 1.04.984h1.04v6.883c-.001.543-.466.983-1.04.983h-3.119v-24.4l9.356-7.992v22.56h-6.237zM9.699 22.736l9.355-7.993v22.623h-6.237c-.574 0-1.04.44-1.04.984 0 .543.466.983 1.04.983h1.04v6.884c0 .543-.466.983-1.04.983H9.699V22.736zm32.225 34.297c-1.148-.001-2.078-.88-2.08-1.966v-5.9H50.24v5.9c-.001 1.086-.932 1.965-2.079 1.966h-6.237zm1.013-14.108a12.81 12.81 0 01-5.712-3.552 11.713 11.713 0 01-2.481-6.027 12.8 12.8 0 015.712 3.552 11.718 11.718 0 012.48 6.027zm.421-5.396a9.43 9.43 0 01.017-1.644A12.895 12.895 0 0146.4 29.27a12.699 12.699 0 011.65 7.035c-.035.351-.095.7-.18 1.043a13.636 13.636 0 00-1.41 3.535c-.006.013-.005.027-.01.04a15.68 15.68 0 00-.392 2.345h-.992c-.167-2-.747-3.95-1.708-5.738zm7.31-.63a12.86 12.86 0 015.716-3.55 11.675 11.675 0 01-2.485 6.024 12.87 12.87 0 01-5.715 3.55 11.678 11.678 0 012.484-6.025zm1.651 8.334l.001 1.967H37.766v-1.967h14.553zm8.316 11.8H51.74a3.733 3.733 0 00.58-1.966v-5.9c1.146-.002 2.077-.882 2.078-1.967v-1.967c-.001-1.085-.932-1.965-2.079-1.966h-.04a12.716 12.716 0 003.237-2.656c1.949-2.493 3.014-5.505 3.04-8.606a.966.966 0 00-.385-.748 1.086 1.086 0 00-.853-.2 16.455 16.455 0 00-7.174 3.502 15.97 15.97 0 00-2.717-7.533 1.05 1.05 0 00-.757-.423 1.085 1.085 0 00-.829.278c-2.268 2.232-3.807 5.037-4.43 8.076-2.105-1.94-4.738-3.29-7.605-3.9a1.083 1.083 0 00-.853.2.966.966 0 00-.385.748c.026 3.1 1.09 6.113 3.04 8.606a12.707 12.707 0 003.237 2.656h-1.08c-1.147 0-2.077.88-2.078 1.966V47.2c0 1.085.93 1.965 2.079 1.967v5.9c.004.692.204 1.371.578 1.966H4.5v-7.866h8.316c1.722-.002 3.117-1.322 3.119-2.95v-6.884h8.316c1.721-.002 3.117-1.321 3.119-2.95V29.5h8.316c1.721-.002 3.116-1.322 3.118-2.95v-6.883l14.549-.001h7.281v37.367zM52.32 17.7h-8.316V1.967h8.316V17.7z" fill="#999"/>
  <path d="M47.121 54.083h-4.158c-.574 0-1.04.44-1.04.984 0 .542.466.983 1.04.983h4.158c.574 0 1.04-.44 1.04-.983 0-.544-.466-.984-1.04-.984z" fill="#999"/>
</svg>
