<svg width="63" height="59" fill="none" xmlns="http://www.w3.org/2000/svg">
  <path d="M61.618 46.217c.575 0 1.04-.44 1.04-.983 0-.544-.466-.984-1.04-.984h-1.04c0-.543-.465-.983-1.039-.983-.574 0-1.04.44-1.04.983H41.868c0-.543-.465-.983-1.04-.983-.573 0-1.038.44-1.038.983h-1.04c-.574 0-1.04.44-1.04.983 0 .544.466.984 1.04.984h1.04v2.95h-1.04c-.574 0-1.04.44-1.04.983 0 .543.466.983 1.04.983h1.04v.984h-1.04c-.574 0-1.04.44-1.04.983 0 .543.466.983 1.04.983h1.04v2.95H22.116v-8.135a10.738 10.738 0 005.038 1.252c5.903-.08 10.625-4.665 10.555-10.25.032-3.882-2.26-7.448-5.919-9.207a8.655 8.655 0 001.841-5.353c.036-4.248-3.114-7.925-7.514-8.771a7.25 7.25 0 00-.51-7.18c-1.432-2.162-3.914-3.5-6.61-3.565-.03 0-.06.004-.09.005C18.353 2.445 15.253-.04 11.633 0c-3.62.04-6.657 2.592-7.127 5.987-2.632.478-4.45 2.77-4.196 5.294.253 2.524 2.494 4.452 5.174 4.452h6.06c.093.283.204.56.332.831-4.4.85-7.549 4.528-7.512 8.776a8.655 8.655 0 001.841 5.353C2.546 32.453.255 36.018.286 39.9c-.069 5.585 4.652 10.17 10.556 10.25 1.765-.002 3.5-.433 5.037-1.253v8.135H1.326c-.574 0-1.04.44-1.04.984 0 .543.466.983 1.04.983h60.292c.575 0 1.04-.44 1.04-.983 0-.543-.466-.984-1.04-.984h-1.04v-2.95h1.04c.575 0 1.04-.44 1.04-.983 0-.543-.466-.983-1.04-.983h-1.04v-.983h1.04c.575 0 1.04-.44 1.04-.984 0-.543-.466-.983-1.04-.983h-1.04v-2.95h1.04zm-50.457-32.79c0 .114.014.226.02.34H5.483c-1.722 0-3.119-1.32-3.119-2.95 0-1.63 1.397-2.95 3.12-2.95.275 0 .54-.104.734-.288a.957.957 0 00.305-.696c-.006-2.566 2.08-4.703 4.785-4.901 2.705-.2 5.115 1.607 5.529 4.143-3.39.98-5.699 3.949-5.677 7.302zm8.876 43.606h-2.079v-9.58c.373-.329.72-.682 1.04-1.056.32.374.667.727 1.04 1.055v9.581zm.127-12.495l6.845-6.476a.946.946 0 00-.006-1.384 1.082 1.082 0 00-1.463-.006l-5.503 5.204V31.874l4.893-4.629a.946.946 0 00-.004-1.386 1.082 1.082 0 00-1.466-.004l-3.423 3.238v-4.51c0-.543-.465-.983-1.04-.983-.573 0-1.039.44-1.039.983v4.51l-3.423-3.238a1.082 1.082 0 00-1.465.004.946.946 0 00-.005 1.386l4.893 4.63v10.001l-5.502-5.204a1.082 1.082 0 00-1.465.004.946.946 0 00-.005 1.386l6.846 6.476c-1.522 2.262-4.156 3.636-6.99 3.646-4.756-.08-8.547-3.784-8.477-8.283-.044-3.558 2.333-6.74 5.893-7.888.344-.107.605-.376.687-.71a.948.948 0 00-.284-.924c-1.429-1.327-2.229-3.145-2.218-5.039-.068-3.752 3.07-6.857 7.035-6.963.429.036.84-.174 1.042-.534a.937.937 0 00-.09-1.026 5.498 5.498 0 01-1.19-3.39c-.05-3.059 2.525-5.58 5.758-5.636 3.233.057 5.808 2.577 5.757 5.636a5.498 5.498 0 01-1.19 3.39.933.933 0 00-.073 1.025c.183.332.547.54.943.539 3.995.068 7.178 3.18 7.117 6.96.011 1.893-.79 3.71-2.218 5.038a.948.948 0 00-.284.924c.083.334.343.603.687.71 3.993 1.32 6.427 5.142 5.795 9.098-.632 3.956-4.151 6.927-8.378 7.073-2.834-.01-5.468-1.384-6.99-3.646zM58.5 57.033H41.867v-2.95H58.5v2.95zm0-4.916H41.867v-.983H58.5v.983zm0-2.95H41.867v-2.95H58.5v2.95zM44.987 24.58h12.474c2.68 0 4.921-1.927 5.175-4.451.253-2.524-1.564-4.817-4.197-5.294-.475-3.426-3.562-5.987-7.215-5.987-3.652 0-6.74 2.561-7.215 5.987-2.632.477-4.45 2.77-4.196 5.294.253 2.524 2.494 4.452 5.174 4.452zm0-7.866c.276 0 .54-.103.735-.288a.957.957 0 00.305-.695c0-2.716 2.327-4.917 5.197-4.917s5.198 2.201 5.198 4.917c0 .26.11.51.305.695.194.185.459.288.735.288 1.722 0 3.118 1.321 3.118 2.95 0 1.63-1.396 2.95-3.118 2.95H44.987c-1.722 0-3.118-1.32-3.118-2.95 0-1.63 1.396-2.95 3.118-2.95z" fill="#999"/>
</svg>
