<svg width="149" height="38" fill="none" xmlns="http://www.w3.org/2000/svg">
  <path d="M69.156 25.484h-6.164L61.82 29h-3.738l6.352-17.063h3.257L74.078 29H70.34l-1.184-3.516zm-5.215-2.847h4.266l-2.144-6.387-2.122 6.387zm18.34-3.187h4.23v3.058h-4.23v4.781H79.06v-4.781h-4.243v-3.059h4.243v-4.582h3.222v4.582zm22.102 6.034h-6.164L97.047 29h-3.738l6.351-17.063h3.258L109.305 29h-3.739l-1.183-3.516zm-5.215-2.847h4.266l-2.145-6.387-2.121 6.387zm18.633-3.141a9.2 9.2 0 00-1.219-.094c-1.281 0-2.121.434-2.52 1.301V29h-3.386V16.32h3.199l.094 1.512c.679-1.164 1.621-1.746 2.824-1.746.375 0 .727.05 1.055.152l-.047 3.258zm6.679 7.008c.625 0 1.133-.172 1.524-.516.391-.343.594-.8.609-1.37h3.176a4.375 4.375 0 01-.703 2.366c-.461.711-1.094 1.266-1.898 1.664-.797.391-1.68.586-2.649.586-1.812 0-3.242-.574-4.289-1.722-1.047-1.157-1.57-2.75-1.57-4.782v-.222c0-1.953.519-3.512 1.558-4.676 1.039-1.164 2.465-1.746 4.278-1.746 1.586 0 2.855.453 3.808 1.36.961.898 1.449 2.097 1.465 3.597h-3.176c-.015-.656-.218-1.188-.609-1.594-.391-.414-.906-.62-1.547-.62-.789 0-1.387.288-1.793.866-.398.57-.598 1.5-.598 2.79v.35c0 1.306.2 2.243.598 2.813.398.57 1.004.856 1.816.856zm10.547-8.801c.899-1.078 2.028-1.617 3.387-1.617 2.75 0 4.145 1.598 4.184 4.793V29h-3.387v-8.027c0-.727-.156-1.262-.469-1.606-.312-.351-.832-.527-1.558-.527-.993 0-1.711.383-2.157 1.148V29h-3.386V11h3.386v6.703zM148.727 29h-3.399V16.32h3.399V29zm-3.598-15.96c0-.509.168-.927.504-1.255.344-.328.808-.492 1.394-.492.578 0 1.039.164 1.383.492.344.328.516.746.516 1.254 0 .516-.176.938-.528 1.266-.343.328-.8.492-1.371.492-.57 0-1.031-.164-1.382-.492-.344-.328-.516-.75-.516-1.266z" fill="#000"/>
  <path fill-rule="evenodd" clip-rule="evenodd" d="M40 0H0v38h40V0zM27 11h-5v5h5v-5zm-9 1v10h9v5H13V12h5z" fill="#000"/>
</svg>
